
<svg xmlns="http://www.w3.org/2000/svg" width="79" height="79" viewBox="0 0 79 79">
  <g id="investor" transform="translate(-0.005 -0.001)">
    <path id="Path_39" data-name="Path 39" d="M210.552,153.278A1.274,1.274,0,1,1,209.278,152,1.274,1.274,0,0,1,210.552,153.278Zm0,0" transform="translate(-174.871 -127.793)" fill="#e61d27"/>
    <path id="Path_40" data-name="Path 40" d="M130.552,153.278A1.274,1.274,0,1,1,129.278,152,1.274,1.274,0,0,1,130.552,153.278Zm0,0" transform="translate(-107.612 -127.793)" fill="#e61d27"/>
    <path id="Path_41" data-name="Path 41" d="M149.1,213.1a5.1,5.1,0,0,0,5.1-5.1h-2.548a2.548,2.548,0,1,1-5.1,0H144A5.1,5.1,0,0,0,149.1,213.1Zm0,0" transform="translate(-121.064 -174.874)" fill="#e61d27"/>
    <path id="Path_42" data-name="Path 42" d="M326.192,0H304V40.778h30.581V8.4Zm.747,4.35,3.295,3.295h-3.295ZM306.551,38.23V2.552H324.39V10.2h7.645V38.23Zm0,0" transform="translate(-255.579 -0.003)" fill="#e61d27"/>
    <path id="Path_43" data-name="Path 43" d="M367.071,116.915l-2.922-2.922-1.8,1.8,4.724,4.723,12.369-12.369-1.8-1.8Zm0,0" transform="translate(-304.631 -89.408)" fill="#e61d27"/>
    <path id="Path_44" data-name="Path 44" d="M353.843,134.02h-15.29V122.552h10.194V120H336v16.565h20.387V126.375h-2.548Zm0,0" transform="translate(-282.483 -100.89)" fill="#e61d27"/>
    <path id="Path_45" data-name="Path 45" d="M336,32h2.548v2.548H336Zm0,0" transform="translate(-282.483 -26.906)" fill="#e61d27"/>
    <path id="Path_46" data-name="Path 46" d="M368,32h7.645v2.548H368Zm0,0" transform="translate(-309.387 -26.906)" fill="#e61d27"/>
    <path id="Path_47" data-name="Path 47" d="M336,64h2.548v2.548H336Zm0,0" transform="translate(-282.483 -53.809)" fill="#e61d27"/>
    <path id="Path_48" data-name="Path 48" d="M368,64h7.645v2.548H368Zm0,0" transform="translate(-309.387 -53.809)" fill="#e61d27"/>
    <path id="Path_49" data-name="Path 49" d="M347.827,331.827h5.1A1.275,1.275,0,0,1,354.2,333.1h2.548a3.828,3.828,0,0,0-3.823-3.823h-1.274V328H349.1v1.274h-1.274A3.827,3.827,0,0,0,344,333.1v1.274a3.827,3.827,0,0,0,3.823,3.823h5.1a1.275,1.275,0,0,1,1.274,1.274v1.274a1.275,1.275,0,0,1-1.274,1.274h-5.1a1.274,1.274,0,0,1-1.274-1.274H344a3.827,3.827,0,0,0,3.823,3.823H349.1v1.274h2.548v-1.274h1.274a3.827,3.827,0,0,0,3.823-3.823v-1.274a3.828,3.828,0,0,0-3.823-3.823h-5.1a1.274,1.274,0,0,1-1.274-1.274V333.1A1.275,1.275,0,0,1,347.827,331.827Zm0,0" transform="translate(-289.209 -275.761)" fill="#e61d27"/>
    <path id="Path_50" data-name="Path 50" d="M74.591,53.874l1.692-2.821-5.01-5.01-2.821,1.692a15.126,15.126,0,0,0-2.947-1.222l-.8-3.19H57.622l-.8,3.191a15.126,15.126,0,0,0-2.947,1.222l-2.821-1.692-1.385,1.385c-.258-.077-.513-.161-.773-.213L36.956,44.829v-4a13.246,13.246,0,0,0,3.156-5.21,6.359,6.359,0,0,0,5.763-6.31V18.332A18.118,18.118,0,0,0,29.141.035,17.773,17.773,0,0,0,16.986,3.852,84.412,84.412,0,0,1,6.673,11.1l-2.221,1.28.928,1.159A18.255,18.255,0,0,0,10.2,17.756V29.308a6.357,6.357,0,0,0,5.67,6.3,12.8,12.8,0,0,0,3.25,5.331v3.889L7.174,47.215A8.946,8.946,0,0,0,0,55.963V79H56.069V75.543c.252.089.5.192.757.268l.8,3.19h7.087l.8-3.19a15.132,15.132,0,0,0,2.947-1.222l2.821,1.692,5.01-5.01L74.591,68.45A15.183,15.183,0,0,0,75.814,65.5l3.19-.8V57.619l-3.19-.8a15.1,15.1,0,0,0-1.223-2.948ZM37.963,47.627l-2.845,7.585-4.955-4.129,5.786-3.857ZM26.594,61.162H29.48l2.184,15.29H24.41Zm3.2-2.548H26.275l-1.6-3.189,3.357-2.8,3.355,2.8ZM21.666,42.883A12.6,12.6,0,0,0,28.024,44.6q.426,0,.858-.027a12.289,12.289,0,0,0,5.526-1.733v2.352l-6.371,4.247-6.371-4.247Zm19.027-9.96a13.481,13.481,0,0,0,.086-1.46V25.72a3.8,3.8,0,0,1-.086,7.2ZM18.57,5.849A15.289,15.289,0,0,1,28.987,2.579a15.566,15.566,0,0,1,14.34,15.753v5.912a6.313,6.313,0,0,0-2.548-1.178v-1.4a3.828,3.828,0,0,0-3.823-3.823H19.631A15.618,15.618,0,0,1,8.358,13.071,88.871,88.871,0,0,0,18.57,5.849ZM15.295,19.873v3.193a6.325,6.325,0,0,0-2.548,1.178v-5.2a18.26,18.26,0,0,0,2.548.833Zm-2.548,9.435a3.817,3.817,0,0,1,2.548-3.588v6.136c0,.355.026.706.055,1.056a3.815,3.815,0,0,1-2.6-3.6Zm5.1-9q.887.086,1.787.085H36.956a1.275,1.275,0,0,1,1.274,1.274v9.8a10.421,10.421,0,0,1-9.514,10.564A10.192,10.192,0,0,1,17.843,31.856Zm2.28,26.921,5.786,3.857-4.956,4.129-2.844-7.585ZM2.553,55.963a6.389,6.389,0,0,1,5.122-6.248l7.9-1.581L19.83,59.468,22.67,57.1l1.5,3L21.834,76.453H12.746V57.34H10.2V76.453H2.553Zm31.686,20.49L31.9,60.1l1.5-3,2.84,2.368L40.5,48.136l7.059,1.412-1.508,1.508,1.692,2.821a15.165,15.165,0,0,0-1.222,2.947l-3.19.8v7.087l3.19.8a15.149,15.149,0,0,0,1.222,2.947l-1.692,2.821,5.01,5.01L53.52,74.8v1.65ZM76.456,62.716l-2.734.684-.181.75A12.682,12.682,0,0,1,72.027,67.8l-.4.659,1.452,2.418-2.2,2.2L68.46,71.621l-.659.4a12.751,12.751,0,0,1-3.648,1.514l-.75.18-.684,2.734H59.612l-.684-2.734-.75-.18a12.682,12.682,0,0,1-3.648-1.514l-.659-.4-2.418,1.453-2.2-2.2,1.453-2.418-.4-.659a12.712,12.712,0,0,1-1.514-3.648l-.181-.75-2.734-.684V59.61l2.734-.684.181-.75A12.652,12.652,0,0,1,50.3,54.526l.4-.658-1.453-2.419,2.2-2.2L53.871,50.7l.659-.4a12.747,12.747,0,0,1,3.648-1.514l.75-.181.684-2.734h3.106l.684,2.734.75.181A12.687,12.687,0,0,1,67.8,50.3l.659.4,2.418-1.452,2.2,2.2-1.452,2.419.4.658a12.75,12.75,0,0,1,1.514,3.648l.181.75,2.734.684Zm0,0" transform="translate(0 0)" fill="#e61d27"/>
  </g>
</svg>
