
<svg id="Group_30" data-name="Group 30" xmlns="http://www.w3.org/2000/svg" width="82" height="81.945" viewBox="0 0 82 81.945">
  <path id="Path_51" data-name="Path 51" d="M78.6,57.994H69.772V53.3a11.228,11.228,0,0,0-1.407-5.441c.128-7.489-.418-13.046.9-21.7C69.6,24,69.842,21.8,70,19.629a1.2,1.2,0,1,0-2.4-.169c-.149,2.111-.387,4.243-.706,6.335-1.3,8.519-.829,14.216-.93,19.07-3.58-3.161-11-4.124-15.8-4.747a.863.863,0,0,1-.753-.856V33.549A11.578,11.578,0,0,0,53.76,25.3h.507a3.363,3.363,0,0,0,3.359-3.359V19.547a3.38,3.38,0,0,0-1.694-2.911V10.2A9.973,9.973,0,0,0,55.2,6.443h5.143A7.462,7.462,0,0,1,67.8,13.9a1.2,1.2,0,1,0,2.4,0,9.867,9.867,0,0,0-9.856-9.856H53.81A10.013,10.013,0,0,0,45.9.17H36.093a10.011,10.011,0,0,0-7.906,3.871H21.658A9.867,9.867,0,0,0,11.8,13.9a81.54,81.54,0,0,0,.93,12.26c1.32,8.655.775,14.214.9,21.7A11.225,11.225,0,0,0,12.228,53.3v4.7H3.4a3.4,3.4,0,0,0-3.4,3.4v2.173a3.4,3.4,0,0,0,2.2,3.178V78.833a3.286,3.286,0,0,0,3.282,3.282H76.516A3.286,3.286,0,0,0,79.8,78.833V66.745A3.4,3.4,0,0,0,82,63.567V61.394a3.4,3.4,0,0,0-3.4-3.4ZM67.37,53.3v4.7H61.993V45.162A8.844,8.844,0,0,1,67.37,53.3Zm-20.283,4.7L53.2,42.989A61.044,61.044,0,0,1,59.59,44.34V57.994ZM33.074,42.235l5.69,4.423c-4.859,2.435-4.658,2.389-4.886,2.423L31.247,42.62a5.866,5.866,0,0,0,1.828-.385ZM47.21,51.321,45.058,56.6l-.9-3.583,1.216-2.593a18.6,18.6,0,0,0,1.836.893Zm-7.335.377-1.1-2.352L41,48.221l2.228,1.125-1.1,2.352Zm-3.248-1.269,1.216,2.593-.9,3.583L34.79,51.321A18.637,18.637,0,0,0,36.626,50.428ZM40.048,54.1h1.9l.978,3.894H39.07ZM50.753,42.62l-2.632,6.462c-.172-.026.161.123-4.885-2.423l5.69-4.423a5.776,5.776,0,0,0,1.827.385Zm-3.5-2.129L41,45.354l-6.255-4.863a3.259,3.259,0,0,0,.245-1.229V35.086a13.467,13.467,0,0,0,6,1.444h.027a13.469,13.469,0,0,0,6-1.444v4.175a3.258,3.258,0,0,0,.245,1.229Zm1.12-9.2a11.01,11.01,0,0,1-14.751,0,9.67,9.67,0,0,1-3.049-7.209c0-.007,0-.013,0-.02-.01-7.951-.006-5.051-.007-5.71a3.623,3.623,0,0,0,1.98-3.212V10.554a1.114,1.114,0,0,1,1.113-1.112h.5c1.915,0,3.1,1.2,6.955,1.2,3.784,0,5.08-1.2,6.955-1.2h.27a1.114,1.114,0,0,1,1.112,1.112v4.587a3.622,3.622,0,0,0,1.985,3.215v5.653c0,.072,0,.072,0,.093a9.658,9.658,0,0,1-3.059,7.191Zm-21.6-11.746a.961.961,0,0,1,.75-.933.974.974,0,0,1,.207-.024h.434l0,4.305h-.437a.958.958,0,0,1-.957-.957Zm28.448,2.391a.958.958,0,0,1-.957.957h-.428V18.59h.428a.961.961,0,0,1,.957.957v2.391ZM36.093,2.572H45.9A7.634,7.634,0,0,1,53.529,10.2v5.991H52.468a1.208,1.208,0,0,1-.615-1.046V10.554a3.519,3.519,0,0,0-3.515-3.515h-.27c-2.593,0-3.33,1.2-6.955,1.2-3.58,0-4.378-1.2-6.955-1.2h-.5a3.519,3.519,0,0,0-3.515,3.515v4.587a1.208,1.208,0,0,1-.614,1.046H28.47V10.2a7.632,7.632,0,0,1,7.623-7.623ZM21.658,6.443H26.8a9.97,9.97,0,0,0-.731,3.752v6.441a3.38,3.38,0,0,0-1.693,2.911v2.391A3.363,3.363,0,0,0,27.733,25.3h.516a11.4,11.4,0,0,0,4.339,8.252v5.712a.864.864,0,0,1-.753.856c-4.754.617-12.21,1.58-15.8,4.747-.1-4.865.376-10.511-.93-19.07a79.137,79.137,0,0,1-.9-11.9,7.462,7.462,0,0,1,7.454-7.454ZM14.63,53.3a8.845,8.845,0,0,1,5.388-8.138v3.355a1.2,1.2,0,1,0,2.4,0V44.336A61.141,61.141,0,0,1,28.8,42.989l6.11,15.005H22.421V54.128a1.2,1.2,0,0,0-2.4,0v3.866H14.63ZM2.4,61.394a1,1,0,0,1,1-1H78.6a1,1,0,0,1,1,1v2.173a1,1,0,0,1-1,1H3.4a1,1,0,0,1-1-1ZM76.516,79.713H5.484a.881.881,0,0,1-.88-.88V66.967H77.4V78.833a.881.881,0,0,1-.88.88Z" transform="translate(0 -0.17)" fill="#e61d27"/>
</svg>
