
<svg xmlns="http://www.w3.org/2000/svg" width="55" height="54.083" viewBox="0 0 55 54.083">
  <g id="Proposul_contract_1618314" data-name="Proposul contract_1618314" transform="translate(-2 -2)">
    <path id="Path_91" data-name="Path 91" d="M53.333,27.942V2H5.667V27.942H2V50.858h8.25V46.275h1.558l.55.275-.367.642a2.593,2.593,0,0,0,.825,3.392,3.043,3.043,0,0,0,1.467.458,1.163,1.163,0,0,0,.55-.092,1.629,1.629,0,0,0,.917-.367,2.794,2.794,0,0,0,1.1,2.017,3.043,3.043,0,0,0,1.467.458,1.163,1.163,0,0,0,.55-.092c.092,0,.183,0,.183-.092a2.733,2.733,0,0,0,1.1,1.558,3.043,3.043,0,0,0,1.467.458,1.163,1.163,0,0,0,.55-.092,1.629,1.629,0,0,0,.917-.367,2.7,2.7,0,0,0,.917,1.1,2.47,2.47,0,0,0,1.375.458,2.441,2.441,0,0,0,1.1-.275l.825.275a2.538,2.538,0,0,0,.825.092,2.443,2.443,0,0,0,1.833-.825,2.794,2.794,0,0,0,.733-1.467,3.257,3.257,0,0,0,.917.183,1.409,1.409,0,0,0,1.283-.55,2.555,2.555,0,0,0,1.1-1.65,2.593,2.593,0,0,0,3.667-1.833,2.836,2.836,0,0,0,2.567-.183h.092a2.882,2.882,0,0,0,1.192-1.742v-.183l5.5-1.558H48.75v4.583H57V27.942H53.333ZM7.5,3.833h44V27.942H48.75v2.75H47.283L39.4,26.017a4.77,4.77,0,0,0-2.933-.642l-5.5.733a2.36,2.36,0,0,0-1.467.642,3.176,3.176,0,0,0-1.467-.733l-5.408-.642a4.77,4.77,0,0,0-2.933.642l-7.883,4.675H10.25v-2.75H7.5Zm.917,45.192H3.833V29.775H8.417Zm6.05.183a.606.606,0,0,1-.55-.092.76.76,0,0,1-.275-1.008l2.017-3.575a.915.915,0,0,1,.458-.367.606.606,0,0,1,.55.092.76.76,0,0,1,.275,1.008l-2.017,3.575A.915.915,0,0,1,14.467,49.208ZM18.5,51.225a.606.606,0,0,1-.55-.092.76.76,0,0,1-.275-1.008l2.017-3.575a.915.915,0,0,1,.458-.367.606.606,0,0,1,.55.092.76.76,0,0,1,.275,1.008l-2.017,3.575A.915.915,0,0,1,18.5,51.225Zm3.3,1.833a.606.606,0,0,1-.55-.092.76.76,0,0,1-.275-1.008l2.017-3.575a.915.915,0,0,1,.458-.367.606.606,0,0,1,.55.092.76.76,0,0,1,.275,1.008l-2.017,3.575A.915.915,0,0,1,21.8,53.058Zm3.117,1.008a2,2,0,0,1-.275-.458.606.606,0,0,1,.092-.55l1.833-2.75a.692.692,0,0,1,.642-.367c.183,0,.275,0,.367.183a2,2,0,0,1,.275.458.606.606,0,0,1-.092.55l-1.833,2.75A.812.812,0,0,1,24.917,54.067Zm3.758,0a.713.713,0,0,1-.733.183l.825-1.283A.961.961,0,0,1,28.675,54.067ZM39.492,48.2a.835.835,0,0,1-1.1-.092L31.15,40.867,29.775,42.15l6.05,6.783c.183.275.275.458.183.642s-.092.367-.367.55a.726.726,0,0,1-1.008-.092l-7.242-6.325-1.283,1.375,5.958,5.867a.775.775,0,0,1,.183.55.549.549,0,0,1-.275.55.705.705,0,0,1-.917-.092l-1.283-1.375v-.458a2.5,2.5,0,0,0-3.667-1.742,2.612,2.612,0,0,0-1.1-1.742,2.546,2.546,0,0,0-2.017-.367c-.092,0-.183,0-.183.092a2.733,2.733,0,0,0-1.1-1.558,2.982,2.982,0,0,0-2.017-.367,1.629,1.629,0,0,0-.917.367,2.794,2.794,0,0,0-1.1-2.017,2.546,2.546,0,0,0-2.017-.367,2.214,2.214,0,0,0-1.65,1.192l-.733,1.375-.917-.55H10.25V32.525h2.108l8.342-4.95a2.867,2.867,0,0,1,1.742-.367l5.408.642a.337.337,0,0,1,.275.092l-5.592,5.042a1.824,1.824,0,0,0-.642,1.467,1.741,1.741,0,0,0,.733,1.375l1.008.733a3.716,3.716,0,0,0,4.583-.092l2.017-1.742,9.442,12.283a.773.773,0,0,1,.183.642C39.767,47.833,39.675,48.108,39.492,48.2Zm7.517-3.758-5.958,1.65V46L31.7,33.625a.551.551,0,0,1,.367-.092h1.192a1.3,1.3,0,0,1,.55.183,6.435,6.435,0,0,0,4.583,5.225l.55-1.742c-1.833-.55-2.933-1.925-3.392-4.125V32.8l-.183-.183a2.741,2.741,0,0,0-2.108-1.008H32.067a2.894,2.894,0,0,0-1.742.642L27.025,35a1.8,1.8,0,0,1-2.292.092l-1.008-.733,6.967-6.233a.7.7,0,0,1,.458-.183l5.5-.733a3.007,3.007,0,0,1,1.742.367l8.342,4.95H48.75V44.442H47.008Zm8.158,4.583H50.583V29.775h4.583Z" fill="#0957a1"/>
    <path id="Path_92" data-name="Path 92" d="M13.833,19.75H12a4.611,4.611,0,0,0,3.667,4.492v1.925H17.5V24.242a4.584,4.584,0,0,0,0-8.983V9.85a2.67,2.67,0,0,1,1.833,2.567h1.833A4.611,4.611,0,0,0,17.5,7.925V6H15.667V7.925a4.584,4.584,0,0,0,0,8.983v5.408A2.67,2.67,0,0,1,13.833,19.75ZM17.5,17.183a2.713,2.713,0,0,1,0,5.133Zm-3.667-4.767A2.67,2.67,0,0,1,15.667,9.85v5.133A2.67,2.67,0,0,1,13.833,12.417Z" transform="translate(-0.833 -0.333)" fill="#0957a1"/>
    <rect id="Rectangle_15" data-name="Rectangle 15" width="26" height="1" transform="translate(21 8.008)" fill="#0957a1"/>
    <rect id="Rectangle_17" data-name="Rectangle 17" width="23" height="1" transform="translate(21 19.008)" fill="#0957a1"/>
  </g>
</svg>
