
<svg xmlns="http://www.w3.org/2000/svg" width="48.118" height="58.325" viewBox="0 0 48.118 58.325">
  <g id="Fund_donation_3257063" data-name="Fund donation_3257063" transform="translate(-8 -2.891)">
    <path id="Path_93" data-name="Path 93" d="M55.832,3.181a1,1,0,0,0-.942-.26L45.784,5.144a1,1,0,0,0-.771,1v1H33.041a10.018,10.018,0,0,0-3.5.641,3.7,3.7,0,0,0-.581-.09,22.09,22.09,0,0,1-8.626-2.124,3.022,3.022,0,0,0-2.635,5.44c.25.12.5.22.761.331a35.153,35.153,0,0,1-4.1-.481,3.005,3.005,0,1,0-1.082,5.911,41.416,41.416,0,0,0,7.484.671c.731,0,1.433,0,2.124-.06a10.178,10.178,0,0,0,1.593,5.34,12.022,12.022,0,1,0,17.031,0,10.109,10.109,0,0,0,1.352-3.2l2.164.461a1,1,0,0,0,.7,1.152l4.759,1.5a1,1,0,0,0,1.282-.721l4.308-17.8a1,1,0,0,0-.25-.942ZM18.083,7.829a1,1,0,0,1,1.332-.471,24.635,24.635,0,0,0,7.123,2.114,10.1,10.1,0,0,0-1.583,1.683h-.27a26.789,26.789,0,0,1-6.121-2A1,1,0,0,1,18.083,7.829Zm-4.438,6.933c-.361-.06-.9-.27-.8-1.162a.922.922,0,0,1,1.162-.8,37.158,37.158,0,0,0,9.708.471,9.838,9.838,0,0,0-.631,2.064,41.485,41.485,0,0,1-9.437-.571Zm29.414,16.4a10.018,10.018,0,1,1-8.415-9.878,3.005,3.005,0,0,0-.671,1.924c-.311,0-.611-.06-.932-.06a8.015,8.015,0,1,0,5.72,2.414,10.1,10.1,0,0,0,1.523-1.312,10.018,10.018,0,0,1,2.775,6.913ZM36.307,19.62a12.022,12.022,0,0,0-6.612,0,4.087,4.087,0,1,1,6.612,0Zm2.745,11.541a6.011,6.011,0,1,1-6.011-6.011,6.011,6.011,0,0,1,6.011,6.011ZM42.3,17.316a1,1,0,0,0-1.2.862c-.521,2.264-.852,3.747-3.566,5.811-.18.1-.451.25-.6.17s-.471-.24-.711-.351a.9.9,0,0,1,.2-1.493,6.432,6.432,0,0,0,2.635-5.089,6.1,6.1,0,1,0-11.331,3.126,10.92,10.92,0,0,0-1.713,1,8.1,8.1,0,0,1-1.162-4.128,8.375,8.375,0,0,1,5.009-7.484,7.844,7.844,0,0,1,3.186-.621H45.062v8.786Zm7.774,3.056-3.005-1V6.907l6.742-1.653Z" transform="translate(0.005 0)" fill="#0957a1"/>
    <path id="Path_94" data-name="Path 94" d="M55.086,35.11H47.071a1,1,0,1,0,0,2h7.013v22.04H10v-2H20.022a1,1,0,0,0,1-1V52.141a1,1,0,0,0-1-1H10V37.114H19.02a1,1,0,0,0,0-2H9a1,1,0,0,0-1,1V60.156a1,1,0,0,0,1,1H55.086a1,1,0,0,0,1-1V36.112A1,1,0,0,0,55.086,35.11ZM19.02,53.143v2H10v-2Z" transform="translate(0 0.059)" fill="#0957a1"/>
    <path id="Path_95" data-name="Path 95" d="M32,27.112v.05a2.5,2.5,0,0,0,.5,4.959h1a.5.5,0,1,1,0,1H31a1,1,0,1,0,0,2h1a1,1,0,0,0,1,1h0a1,1,0,0,0,1-1h0a2.517,2.517,0,1,0-.5-5.009h-1a.5.5,0,0,1-.5-.5.511.511,0,0,1,.5-.5h2.5a1,1,0,0,0,0-2h-1a1,1,0,1,0-2,0Z" transform="translate(0.04 0.042)" fill="#0957a1"/>
    <path id="Path_96" data-name="Path 96" d="M20,42.115a1.027,1.027,0,0,1,1-1,1,1,0,1,0,0-2,3.005,3.005,0,1,0,0,6.011H45.049a3.005,3.005,0,1,0,0-6.011,1,1,0,0,0,0,2,1,1,0,1,1,0,2H21.005A1,1,0,0,1,20,42.115Z" transform="translate(0.018 0.066)" fill="#0957a1"/>
    <path id="Path_97" data-name="Path 97" d="M25,56.119V52.112a1,1,0,1,0-2,0v4.007a1,1,0,0,0,2,0Z" transform="translate(0.027 0.088)" fill="#0957a1"/>
  </g>
</svg>
